<mxfile host="Electron" agent="Mozilla/5.0 (Windows NT 10.0; Win64; x64) AppleWebKit/537.36 (KHTML, like Gecko) draw.io/26.2.2 Chrome/134.0.6998.178 Electron/35.1.2 Safari/537.36" version="26.2.2">
  <diagram name="Page-1" id="2zIw51335Y6zfLOF5OY1">
    <mxGraphModel dx="1044" dy="626" grid="0" gridSize="10" guides="1" tooltips="1" connect="1" arrows="1" fold="1" page="1" pageScale="1" pageWidth="827" pageHeight="1169" math="0" shadow="0">
      <root>
        <mxCell id="0" />
        <mxCell id="1" parent="0" />
        <mxCell id="1RmGvU3wyzNslkwMU5Pl-7" value="crm_cust_info" style="swimlane;fontStyle=0;childLayout=stackLayout;horizontal=1;startSize=30;horizontalStack=0;resizeParent=1;resizeParentMax=0;resizeLast=0;collapsible=1;marginBottom=0;whiteSpace=wrap;html=1;rounded=1;fillColor=#dae8fc;strokeColor=#6c8ebf;fontSize=14;" vertex="1" parent="1">
          <mxGeometry x="319" y="594" width="200" height="120" as="geometry" />
        </mxCell>
        <mxCell id="1RmGvU3wyzNslkwMU5Pl-8" value="cst_id" style="text;strokeColor=none;fillColor=none;align=left;verticalAlign=middle;spacingLeft=4;spacingRight=4;overflow=hidden;points=[[0,0.5],[1,0.5]];portConstraint=eastwest;rotatable=0;whiteSpace=wrap;html=1;fontSize=14;" vertex="1" parent="1RmGvU3wyzNslkwMU5Pl-7">
          <mxGeometry y="30" width="200" height="30" as="geometry" />
        </mxCell>
        <mxCell id="1RmGvU3wyzNslkwMU5Pl-16" value="cst_key" style="text;strokeColor=none;fillColor=none;align=left;verticalAlign=middle;spacingLeft=4;spacingRight=4;overflow=hidden;points=[[0,0.5],[1,0.5]];portConstraint=eastwest;rotatable=0;whiteSpace=wrap;html=1;fontSize=14;" vertex="1" parent="1RmGvU3wyzNslkwMU5Pl-7">
          <mxGeometry y="60" width="200" height="30" as="geometry" />
        </mxCell>
        <mxCell id="1RmGvU3wyzNslkwMU5Pl-17" value="&lt;b&gt;CUSTOMER&lt;/b&gt;" style="text;strokeColor=#82b366;fillColor=#d5e8d4;align=center;verticalAlign=middle;spacingLeft=4;spacingRight=4;overflow=hidden;points=[[0,0.5],[1,0.5]];portConstraint=eastwest;rotatable=0;whiteSpace=wrap;html=1;fontSize=14;rounded=0;" vertex="1" parent="1RmGvU3wyzNslkwMU5Pl-7">
          <mxGeometry y="90" width="200" height="30" as="geometry" />
        </mxCell>
        <mxCell id="1RmGvU3wyzNslkwMU5Pl-1" value="&lt;b&gt;&lt;font style=&quot;font-size: 20px;&quot;&gt;Integration Model&lt;/font&gt;&lt;/b&gt;" style="rounded=1;whiteSpace=wrap;html=1;strokeColor=none;" vertex="1" parent="1">
          <mxGeometry x="10" y="250" width="180" height="20" as="geometry" />
        </mxCell>
        <mxCell id="1RmGvU3wyzNslkwMU5Pl-2" value="(how to tables are related)" style="rounded=0;whiteSpace=wrap;html=1;strokeColor=none;fillColor=none;" vertex="1" parent="1">
          <mxGeometry x="180" y="250" width="150" height="20" as="geometry" />
        </mxCell>
        <mxCell id="1RmGvU3wyzNslkwMU5Pl-11" value="Customer&amp;nbsp; Information" style="text;html=1;align=center;verticalAlign=middle;whiteSpace=wrap;rounded=0;fontSize=14;" vertex="1" parent="1">
          <mxGeometry x="307" y="565" width="205" height="30" as="geometry" />
        </mxCell>
        <mxCell id="1RmGvU3wyzNslkwMU5Pl-12" value="crm_prd_info" style="swimlane;fontStyle=0;childLayout=stackLayout;horizontal=1;startSize=30;horizontalStack=0;resizeParent=1;resizeParentMax=0;resizeLast=0;collapsible=1;marginBottom=0;whiteSpace=wrap;html=1;rounded=1;fillColor=#dae8fc;strokeColor=#6c8ebf;fontSize=14;" vertex="1" parent="1">
          <mxGeometry x="319" y="434" width="190" height="90" as="geometry" />
        </mxCell>
        <mxCell id="1RmGvU3wyzNslkwMU5Pl-13" value="prd_key" style="text;strokeColor=none;fillColor=none;align=left;verticalAlign=middle;spacingLeft=4;spacingRight=4;overflow=hidden;points=[[0,0.5],[1,0.5]];portConstraint=eastwest;rotatable=0;whiteSpace=wrap;html=1;fontSize=14;rounded=0;" vertex="1" parent="1RmGvU3wyzNslkwMU5Pl-12">
          <mxGeometry y="30" width="190" height="30" as="geometry" />
        </mxCell>
        <mxCell id="1RmGvU3wyzNslkwMU5Pl-19" value="&lt;b&gt;PRODUCT&lt;/b&gt;" style="text;strokeColor=#b85450;fillColor=#f8cecc;align=center;verticalAlign=middle;spacingLeft=4;spacingRight=4;overflow=hidden;points=[[0,0.5],[1,0.5]];portConstraint=eastwest;rotatable=0;whiteSpace=wrap;html=1;fontSize=14;rounded=0;" vertex="1" parent="1RmGvU3wyzNslkwMU5Pl-12">
          <mxGeometry y="60" width="190" height="30" as="geometry" />
        </mxCell>
        <mxCell id="1RmGvU3wyzNslkwMU5Pl-14" value="Current &amp;amp; History Product Information" style="text;html=1;align=center;verticalAlign=middle;whiteSpace=wrap;rounded=0;fontSize=14;" vertex="1" parent="1">
          <mxGeometry x="304" y="404" width="245" height="30" as="geometry" />
        </mxCell>
        <mxCell id="1RmGvU3wyzNslkwMU5Pl-20" value="crm_sales_details" style="swimlane;fontStyle=0;childLayout=stackLayout;horizontal=1;startSize=30;horizontalStack=0;resizeParent=1;resizeParentMax=0;resizeLast=0;collapsible=1;marginBottom=0;whiteSpace=wrap;html=1;rounded=1;fillColor=#dae8fc;strokeColor=#6c8ebf;fontSize=14;" vertex="1" parent="1">
          <mxGeometry x="36" y="496" width="200" height="120" as="geometry" />
        </mxCell>
        <mxCell id="1RmGvU3wyzNslkwMU5Pl-21" value="prd_key" style="text;strokeColor=none;fillColor=none;align=left;verticalAlign=middle;spacingLeft=4;spacingRight=4;overflow=hidden;points=[[0,0.5],[1,0.5]];portConstraint=eastwest;rotatable=0;whiteSpace=wrap;html=1;fontSize=14;" vertex="1" parent="1RmGvU3wyzNslkwMU5Pl-20">
          <mxGeometry y="30" width="200" height="30" as="geometry" />
        </mxCell>
        <mxCell id="1RmGvU3wyzNslkwMU5Pl-22" value="cst_id" style="text;strokeColor=none;fillColor=none;align=left;verticalAlign=middle;spacingLeft=4;spacingRight=4;overflow=hidden;points=[[0,0.5],[1,0.5]];portConstraint=eastwest;rotatable=0;whiteSpace=wrap;html=1;fontSize=14;" vertex="1" parent="1RmGvU3wyzNslkwMU5Pl-20">
          <mxGeometry y="60" width="200" height="30" as="geometry" />
        </mxCell>
        <mxCell id="1RmGvU3wyzNslkwMU5Pl-23" value="&lt;b&gt;SALES&lt;/b&gt;" style="text;strokeColor=#82b366;fillColor=#d5e8d4;align=center;verticalAlign=middle;spacingLeft=4;spacingRight=4;overflow=hidden;points=[[0,0.5],[1,0.5]];portConstraint=eastwest;rotatable=0;whiteSpace=wrap;html=1;fontSize=14;rounded=0;" vertex="1" parent="1RmGvU3wyzNslkwMU5Pl-20">
          <mxGeometry y="90" width="200" height="30" as="geometry" />
        </mxCell>
        <mxCell id="1RmGvU3wyzNslkwMU5Pl-24" value="Transaction Records about Sales &amp;amp; Orders" style="text;html=1;align=center;verticalAlign=middle;whiteSpace=wrap;rounded=0;fontSize=14;" vertex="1" parent="1">
          <mxGeometry x="20" y="460" width="205" height="30" as="geometry" />
        </mxCell>
        <mxCell id="1RmGvU3wyzNslkwMU5Pl-25" style="edgeStyle=orthogonalEdgeStyle;rounded=0;orthogonalLoop=1;jettySize=auto;html=1;exitX=1;exitY=0.5;exitDx=0;exitDy=0;entryX=0;entryY=0.5;entryDx=0;entryDy=0;" edge="1" parent="1" source="1RmGvU3wyzNslkwMU5Pl-21" target="1RmGvU3wyzNslkwMU5Pl-12">
          <mxGeometry relative="1" as="geometry" />
        </mxCell>
        <mxCell id="1RmGvU3wyzNslkwMU5Pl-26" style="edgeStyle=orthogonalEdgeStyle;rounded=0;orthogonalLoop=1;jettySize=auto;html=1;exitX=1;exitY=0.5;exitDx=0;exitDy=0;" edge="1" parent="1" source="1RmGvU3wyzNslkwMU5Pl-22" target="1RmGvU3wyzNslkwMU5Pl-8">
          <mxGeometry relative="1" as="geometry" />
        </mxCell>
        <mxCell id="1RmGvU3wyzNslkwMU5Pl-27" value="" style="rounded=1;whiteSpace=wrap;html=1;fillColor=none;dashed=1;" vertex="1" parent="1">
          <mxGeometry x="5" y="360" width="560" height="400" as="geometry" />
        </mxCell>
        <mxCell id="1RmGvU3wyzNslkwMU5Pl-28" value="&lt;b&gt;&lt;font style=&quot;font-size: 18px;&quot;&gt;CRM&lt;/font&gt;&lt;/b&gt;" style="rounded=1;whiteSpace=wrap;html=1;fillColor=#dae8fc;strokeColor=#6c8ebf;" vertex="1" parent="1">
          <mxGeometry x="220" y="340" width="120" height="30" as="geometry" />
        </mxCell>
        <mxCell id="1RmGvU3wyzNslkwMU5Pl-29" value="Customer Relationship Management" style="text;html=1;align=center;verticalAlign=middle;whiteSpace=wrap;rounded=0;fontSize=16;" vertex="1" parent="1">
          <mxGeometry x="150" y="310" width="270" height="30" as="geometry" />
        </mxCell>
        <mxCell id="1RmGvU3wyzNslkwMU5Pl-53" value="" style="group" vertex="1" connectable="0" parent="1">
          <mxGeometry x="630" y="280" width="810" height="520" as="geometry" />
        </mxCell>
        <mxCell id="1RmGvU3wyzNslkwMU5Pl-46" style="edgeStyle=orthogonalEdgeStyle;rounded=0;orthogonalLoop=1;jettySize=auto;html=1;exitX=1;exitY=0.5;exitDx=0;exitDy=0;" edge="1" parent="1RmGvU3wyzNslkwMU5Pl-53" source="1RmGvU3wyzNslkwMU5Pl-42" target="1RmGvU3wyzNslkwMU5Pl-32">
          <mxGeometry relative="1" as="geometry" />
        </mxCell>
        <mxCell id="1RmGvU3wyzNslkwMU5Pl-62" value="" style="group" vertex="1" connectable="0" parent="1RmGvU3wyzNslkwMU5Pl-53">
          <mxGeometry x="40" y="30" width="270" height="216" as="geometry" />
        </mxCell>
        <mxCell id="1RmGvU3wyzNslkwMU5Pl-48" value="&lt;span style=&quot;font-size: 18px;&quot;&gt;&lt;b&gt;ERP&lt;/b&gt;&lt;/span&gt;" style="rounded=1;whiteSpace=wrap;html=1;fillColor=#fff2cc;strokeColor=#d6b656;" vertex="1" parent="1RmGvU3wyzNslkwMU5Pl-62">
          <mxGeometry x="75" y="30" width="120" height="30" as="geometry" />
        </mxCell>
        <mxCell id="1RmGvU3wyzNslkwMU5Pl-49" value="Enterprise Resource Planning" style="text;html=1;align=center;verticalAlign=middle;whiteSpace=wrap;rounded=0;fontSize=16;" vertex="1" parent="1RmGvU3wyzNslkwMU5Pl-62">
          <mxGeometry width="270" height="30" as="geometry" />
        </mxCell>
        <mxCell id="1RmGvU3wyzNslkwMU5Pl-54" value="" style="group" vertex="1" connectable="0" parent="1RmGvU3wyzNslkwMU5Pl-62">
          <mxGeometry x="25" y="90" width="216" height="126" as="geometry" />
        </mxCell>
        <mxCell id="1RmGvU3wyzNslkwMU5Pl-40" value="erp_px_cat_g1v2" style="swimlane;fontStyle=0;childLayout=stackLayout;horizontal=1;startSize=30;horizontalStack=0;resizeParent=1;resizeParentMax=0;resizeLast=0;collapsible=1;marginBottom=0;whiteSpace=wrap;html=1;rounded=1;fontSize=14;fillColor=#fff2cc;strokeColor=#d6b656;" vertex="1" parent="1RmGvU3wyzNslkwMU5Pl-54">
          <mxGeometry x="16" y="36" width="200" height="90" as="geometry" />
        </mxCell>
        <mxCell id="1RmGvU3wyzNslkwMU5Pl-41" value="id" style="text;strokeColor=none;fillColor=none;align=left;verticalAlign=middle;spacingLeft=4;spacingRight=4;overflow=hidden;points=[[0,0.5],[1,0.5]];portConstraint=eastwest;rotatable=0;whiteSpace=wrap;html=1;fontSize=14;" vertex="1" parent="1RmGvU3wyzNslkwMU5Pl-40">
          <mxGeometry y="30" width="200" height="30" as="geometry" />
        </mxCell>
        <mxCell id="1RmGvU3wyzNslkwMU5Pl-43" value="&lt;b&gt;PRODUCT&lt;/b&gt;" style="text;strokeColor=#b85450;fillColor=#f8cecc;align=center;verticalAlign=middle;spacingLeft=4;spacingRight=4;overflow=hidden;points=[[0,0.5],[1,0.5]];portConstraint=eastwest;rotatable=0;whiteSpace=wrap;html=1;fontSize=14;rounded=0;" vertex="1" parent="1RmGvU3wyzNslkwMU5Pl-40">
          <mxGeometry y="60" width="200" height="30" as="geometry" />
        </mxCell>
        <mxCell id="1RmGvU3wyzNslkwMU5Pl-44" value="Product Categories" style="text;html=1;align=center;verticalAlign=middle;whiteSpace=wrap;rounded=0;fontSize=14;" vertex="1" parent="1RmGvU3wyzNslkwMU5Pl-54">
          <mxGeometry width="205" height="30" as="geometry" />
        </mxCell>
        <mxCell id="1RmGvU3wyzNslkwMU5Pl-59" value="" style="group" vertex="1" connectable="0" parent="1RmGvU3wyzNslkwMU5Pl-53">
          <mxGeometry x="65" y="260" width="245" height="120" as="geometry" />
        </mxCell>
        <mxCell id="1RmGvU3wyzNslkwMU5Pl-36" value="erp_cust_az12" style="swimlane;fontStyle=0;childLayout=stackLayout;horizontal=1;startSize=30;horizontalStack=0;resizeParent=1;resizeParentMax=0;resizeLast=0;collapsible=1;marginBottom=0;whiteSpace=wrap;html=1;rounded=1;fillColor=#fff2cc;strokeColor=#d6b656;fontSize=14;" vertex="1" parent="1RmGvU3wyzNslkwMU5Pl-59">
          <mxGeometry x="15" y="30" width="190" height="90" as="geometry" />
        </mxCell>
        <mxCell id="1RmGvU3wyzNslkwMU5Pl-37" value="cid" style="text;strokeColor=none;fillColor=none;align=left;verticalAlign=middle;spacingLeft=4;spacingRight=4;overflow=hidden;points=[[0,0.5],[1,0.5]];portConstraint=eastwest;rotatable=0;whiteSpace=wrap;html=1;fontSize=14;rounded=0;" vertex="1" parent="1RmGvU3wyzNslkwMU5Pl-36">
          <mxGeometry y="30" width="190" height="30" as="geometry" />
        </mxCell>
        <mxCell id="1RmGvU3wyzNslkwMU5Pl-38" value="&lt;b&gt;CUSTOMER&lt;/b&gt;" style="text;strokeColor=#82b366;fillColor=#d5e8d4;align=center;verticalAlign=middle;spacingLeft=4;spacingRight=4;overflow=hidden;points=[[0,0.5],[1,0.5]];portConstraint=eastwest;rotatable=0;whiteSpace=wrap;html=1;fontSize=14;rounded=0;" vertex="1" parent="1RmGvU3wyzNslkwMU5Pl-36">
          <mxGeometry y="60" width="190" height="30" as="geometry" />
        </mxCell>
        <mxCell id="1RmGvU3wyzNslkwMU5Pl-39" value="Extra Customer Information (Birthdate)" style="text;html=1;align=center;verticalAlign=middle;whiteSpace=wrap;rounded=0;fontSize=14;" vertex="1" parent="1RmGvU3wyzNslkwMU5Pl-59">
          <mxGeometry width="245" height="30" as="geometry" />
        </mxCell>
        <mxCell id="1RmGvU3wyzNslkwMU5Pl-57" value="" style="group" vertex="1" connectable="0" parent="1RmGvU3wyzNslkwMU5Pl-53">
          <mxGeometry x="75" y="390" width="223" height="119" as="geometry" />
        </mxCell>
        <mxCell id="1RmGvU3wyzNslkwMU5Pl-31" value="erp_loc_a101" style="swimlane;fontStyle=0;childLayout=stackLayout;horizontal=1;startSize=30;horizontalStack=0;resizeParent=1;resizeParentMax=0;resizeLast=0;collapsible=1;marginBottom=0;whiteSpace=wrap;html=1;rounded=1;fillColor=#fff2cc;strokeColor=#d6b656;fontSize=14;" vertex="1" parent="1RmGvU3wyzNslkwMU5Pl-57">
          <mxGeometry x="12" y="29" width="200" height="90" as="geometry" />
        </mxCell>
        <mxCell id="1RmGvU3wyzNslkwMU5Pl-32" value="cid" style="text;strokeColor=none;fillColor=none;align=left;verticalAlign=middle;spacingLeft=4;spacingRight=4;overflow=hidden;points=[[0,0.5],[1,0.5]];portConstraint=eastwest;rotatable=0;whiteSpace=wrap;html=1;fontSize=14;" vertex="1" parent="1RmGvU3wyzNslkwMU5Pl-31">
          <mxGeometry y="30" width="200" height="30" as="geometry" />
        </mxCell>
        <mxCell id="1RmGvU3wyzNslkwMU5Pl-34" value="&lt;b&gt;CUSTOMER&lt;/b&gt;" style="text;strokeColor=#82b366;fillColor=#d5e8d4;align=center;verticalAlign=middle;spacingLeft=4;spacingRight=4;overflow=hidden;points=[[0,0.5],[1,0.5]];portConstraint=eastwest;rotatable=0;whiteSpace=wrap;html=1;fontSize=14;rounded=0;" vertex="1" parent="1RmGvU3wyzNslkwMU5Pl-31">
          <mxGeometry y="60" width="200" height="30" as="geometry" />
        </mxCell>
        <mxCell id="1RmGvU3wyzNslkwMU5Pl-35" value="Location of Customers (Country)" style="text;html=1;align=center;verticalAlign=middle;whiteSpace=wrap;rounded=0;fontSize=14;" vertex="1" parent="1RmGvU3wyzNslkwMU5Pl-57">
          <mxGeometry width="223" height="35" as="geometry" />
        </mxCell>
        <mxCell id="1RmGvU3wyzNslkwMU5Pl-63" value="" style="rounded=1;whiteSpace=wrap;html=1;strokeColor=default;fillColor=none;dashed=1;" vertex="1" parent="1RmGvU3wyzNslkwMU5Pl-53">
          <mxGeometry x="50" y="70" width="280" height="480" as="geometry" />
        </mxCell>
        <mxCell id="1RmGvU3wyzNslkwMU5Pl-64" style="edgeStyle=orthogonalEdgeStyle;rounded=0;orthogonalLoop=1;jettySize=auto;html=1;entryX=0.107;entryY=0.269;entryDx=0;entryDy=0;entryPerimeter=0;" edge="1" parent="1" source="1RmGvU3wyzNslkwMU5Pl-13" target="1RmGvU3wyzNslkwMU5Pl-63">
          <mxGeometry relative="1" as="geometry" />
        </mxCell>
        <mxCell id="1RmGvU3wyzNslkwMU5Pl-65" style="edgeStyle=orthogonalEdgeStyle;rounded=0;orthogonalLoop=1;jettySize=auto;html=1;entryX=0.107;entryY=0.563;entryDx=0;entryDy=0;entryPerimeter=0;" edge="1" parent="1" source="1RmGvU3wyzNslkwMU5Pl-16" target="1RmGvU3wyzNslkwMU5Pl-63">
          <mxGeometry relative="1" as="geometry" />
        </mxCell>
        <mxCell id="1RmGvU3wyzNslkwMU5Pl-66" style="edgeStyle=orthogonalEdgeStyle;rounded=0;orthogonalLoop=1;jettySize=auto;html=1;entryX=0.107;entryY=0.813;entryDx=0;entryDy=0;entryPerimeter=0;" edge="1" parent="1" source="1RmGvU3wyzNslkwMU5Pl-16" target="1RmGvU3wyzNslkwMU5Pl-63">
          <mxGeometry relative="1" as="geometry" />
        </mxCell>
      </root>
    </mxGraphModel>
  </diagram>
</mxfile>
